<?xml version="1.0" encoding="UTF-8" standalone="no"?>
<svg
   xmlns:dc="http://purl.org/dc/elements/1.1/"
   xmlns:cc="http://creativecommons.org/ns#"
   xmlns:rdf="http://www.w3.org/1999/02/22-rdf-syntax-ns#"
   xmlns:svg="http://www.w3.org/2000/svg"
   xmlns="http://www.w3.org/2000/svg"
   viewBox="0 0 1440 1440"
   height="1440"
   width="1440"
   xml:space="preserve"
   id="svg2"
   version="1.1"><metadata
     id="metadata8"><rdf:RDF><cc:Work
         rdf:about=""><dc:format>image/svg+xml</dc:format><dc:type
           rdf:resource="http://purl.org/dc/dcmitype/StillImage" /></cc:Work></rdf:RDF></metadata><defs
     id="defs6"><clipPath
       id="clipPath18"
       clipPathUnits="userSpaceOnUse"><path
         id="path16"
         d="M 0,1080 H 1080 V 0 H 0 Z" /></clipPath><clipPath
       id="clipPath74"
       clipPathUnits="userSpaceOnUse"><path
         id="path72"
         d="m 608.534,476.78 v -44.412 c 0,-1.65 -0.266,-3.228 -0.487,-4.818 v 0 c -0.098,-0.703 -0.076,-1.441 -0.216,-2.131 v 0 c -1.129,-5.609 -3.709,-10.64 -7.17,-14.941 v 0 c -0.061,-0.076 -0.126,-0.15 -0.187,-0.227 v 0 c -6.45,-7.878 -16.125,-13.02 -27.077,-13.02 v 0 h -17.778 c -11.139,0 -20.965,5.311 -27.407,13.423 v 0 c -3.847,4.844 -6.404,10.668 -7.261,17.088 v 0 c -0.204,1.529 -0.467,3.042 -0.467,4.626 v 0 44.027 0.385 h -16.246 v -44.412 c 0,-1.571 0.324,-3.054 0.463,-4.591 v 0 c -57.929,0.126 -116.566,0.251 -170.598,0.367 v 0 c 0.071,1.328 0.396,2.587 0.396,3.931 v 0 c 0,16.807 -5.671,32.312 -15.201,44.705 v 0 h -23.642 c 13.34,-10.354 21.941,-26.538 21.941,-44.696 v 0 c 0,-3.193 -0.431,-6.28 -0.942,-9.328 v 0 c -1.018,-6.073 -3.064,-11.738 -5.859,-16.993 v 0 c -2.483,-4.672 -5.589,-8.967 -9.205,-12.761 v 0 h 21.261 c 3.513,5.592 6.304,11.689 8.242,18.149 v 0 c 56.293,-0.145 117.66,-0.302 178.104,-0.45 v 0 c 3.211,-6.845 7.869,-12.884 13.581,-17.699 v 0 h 83.535 c 3.516,2.955 6.634,6.37 9.262,10.151 v 0 c 8.637,-3.755 17.597,-7.144 26.84,-10.151 v 0 h 110.376 c -2.148,0.003 -4.3,0.024 -6.456,0.065 v 0 c -0.198,0.003 -0.394,10e-4 -0.591,-0.002 v 0 c -0.121,-10e-4 -0.243,-0.003 -0.364,-0.003 v 0 c -0.083,0 -0.166,10e-4 -0.248,0.003 v 0 c -7.605,0.162 -15.084,0.631 -22.497,1.239 v 0 c -28.121,2.31 -54.742,7.766 -79.11,16.074 v 0 c -7.175,2.447 -14.138,5.148 -20.901,8.076 v 0 c 0.83,2.93 1.367,5.945 1.665,9.06 v 0 c 0.155,1.622 0.491,3.193 0.491,4.854 v 0 44.412 h 96.392 21.865 78.745 21.865 50.554 16.9 59.208 c -18.834,-20.707 -42.924,-38.112 -70.602,-51.633 v 0 c -11.864,-5.795 -24.401,-10.851 -37.471,-15.152 v 0 c -4.401,-1.448 -8.87,-2.79 -13.388,-4.061 v 0 c -7.65,-2.153 -15.436,-4.074 -23.387,-5.702 v 0 c -22.929,-4.697 -46.998,-7.196 -71.669,-7.23 v 0 h 110.421 c 53.161,16.88 98.363,45.781 128.219,83.778 v 0 z m -405.745,0 c -9.527,-12.393 -15.197,-27.898 -15.197,-44.705 v 0 c 0,-1.237 0.306,-2.392 0.366,-3.618 v 0 c -40.84,0.087 -70.814,0.153 -83.222,0.186 v 0 c -2.287,8.847 -6.132,27.018 -5.804,48.137 v 0 H 81.899 c -0.01,-0.73 -0.017,-1.456 -0.019,-2.179 v 0 -0.978 c 0.082,-30.587 7.898,-54.408 8.466,-56.102 v 0 c 1.155,-3.433 4.373,-5.743 7.987,-5.759 v 0 c 1.582,-0.005 37.443,-0.1 92.55,-0.244 v 0 c 1.94,-6.597 4.769,-12.818 8.348,-18.516 v 0 h 21.268 c -3.665,3.845 -6.803,8.202 -9.302,12.947 v 0 c -2.787,5.289 -4.799,10.99 -5.79,17.096 v 0 c -0.48,2.962 -0.914,5.945 -0.914,9.039 v 0 c 0,18.158 8.602,34.342 21.941,44.696 v 0 z" /></clipPath><clipPath
       id="clipPath90"
       clipPathUnits="userSpaceOnUse"><path
         id="path88"
         d="m 793.31,818.659 83.515,-133.396 9.076,-14.496 80.979,-129.345 h -57.564 -16.91 -149.132 v 148.899 17.563 110.775 H 726.25 V 711.499 694.293 535.652 c 0,-6.215 5.039,-11.254 11.254,-11.254 v 0 h 155.374 16.909 67.509 c 8.844,0 14.231,9.73 9.54,17.227 v 0 l -89.675,143.234 -4.518,7.214 -79.25,126.586 z m -164.393,0 c -11.779,-22.239 -35.17,-37.424 -62.038,-37.424 v 0 c -26.869,0 -50.259,15.185 -62.037,37.424 v 0 H 448.13 c -14.6,-13.261 -23.301,-33.715 -23.301,-58.44 v 0 -64.063 C 372.24,679.023 333.508,658.054 310.151,645.395 v 0 C 256.306,616.236 209.729,608.86 209.309,608.81 v 0 c -51.471,-7.574 -88.014,-28.449 -108.616,-62.047 v 0 C 90.921,530.828 85.789,513.741 83.472,497.381 v 0 h 17.185 c 2.155,13.684 6.548,27.72 14.499,40.653 v 0 c 17.864,29.06 50.373,47.245 96.644,54.06 v 0 c 2.013,0.298 49.803,7.806 107.707,39.159 v 0 c 21.434,11.614 57.021,30.867 105.322,47.094 v 0 -121.98 c 0,-23.877 11.183,-45.194 28.587,-58.986 v 0 h 46.647 c -32.526,0 -58.988,26.461 -58.988,58.986 v 0 127.174 17.625 59.053 c 0,32.587 18.689,55.678 45.937,58.44 v 0 c 12.931,-31.443 43.817,-53.671 79.867,-53.671 v 0 c 34.571,0 64.246,20.539 78.045,49.943 v 0 c 12.054,-0.589 21.808,-4.153 28.758,-10.971 v 0 c 3.878,-3.802 6.803,-8.862 9.122,-14.612 v 0 c 3.261,-8.085 5.137,-17.754 5.137,-29.129 v 0 -42.137 -17.06 -144.655 c 0,-4.648 -0.596,-9.15 -1.617,-13.491 v 0 -1.454 h -0.376 c -1.605,-6.116 -4.14,-11.849 -7.495,-17.024 v 0 c -10.52,-16.232 -28.757,-27.017 -49.498,-27.017 v 0 h 46.602 c 9.588,7.595 17.278,17.474 22.265,28.809 v 0 c 2.698,6.132 4.551,12.697 5.526,19.548 v 0 152.827 17.125 58.051 c -0.742,6.312 -1.976,12.225 -3.772,17.63 v 0 c -3.217,9.687 -8.067,17.863 -14.517,24.187 v 0 c -1.113,1.092 -2.269,2.126 -3.467,3.101 v 0 z M 562.639,597.532 h -7.02 c -28.331,0 -51.381,-23.051 -51.381,-51.383 v 0 -48.768 h 16.246 v 48.768 c 0,18.22 13.993,33.071 31.769,34.794 v 0 c 1.125,0.11 2.214,0.34 3.366,0.34 v 0 h 16.929 0.849 c 19.374,0 35.137,-15.761 35.137,-35.134 v 0 -4.727 -17.024 -27.017 h 16.247 v 27.017 17.024 4.727 c 0,25.329 -18.463,46.307 -42.615,50.496 v 0 c -2.863,0.497 -5.766,0.887 -8.769,0.887 v 0 z M 227.414,497.381 h 67.257 c -10.082,5.214 -21.519,8.161 -33.63,8.161 v 0 c -12.111,0 -23.546,-2.947 -33.627,-8.161" /></clipPath><clipPath
       id="clipPath106"
       clipPathUnits="userSpaceOnUse"><path
         id="path104"
         d="m 941.924,581.283 24.956,-39.861 h -57.564 -16.91 -149.132 v 39.861 H 726.25 v -45.631 c 0,-6.215 5.039,-11.254 11.254,-11.254 v 0 h 155.374 16.909 67.509 c 8.844,0 14.231,9.73 9.54,17.227 v 0 l -24.829,39.658 z m -253.983,0 v -24.916 c 0,-4.648 -0.596,-9.15 -1.617,-13.491 v 0 -1.454 h -0.376 c -1.605,-6.116 -4.14,-11.849 -7.495,-17.024 v 0 c -10.52,-16.232 -28.757,-27.017 -49.498,-27.017 v 0 h -4.174 v 27.017 17.024 4.727 c 0,13.61 -5.332,25.966 -14.013,35.134 v 0 h -92.609 c -8.63,-9.196 -13.921,-21.558 -13.921,-35.134 v 0 -48.768 h -4.175 c -32.526,0 -58.988,26.461 -58.988,58.986 v 0 24.916 h -16.246 v -24.916 c 0,-41.482 33.75,-75.232 75.234,-75.232 v 0 h 4.175 v -48.767 c 0,-1.571 0.324,-3.054 0.463,-4.591 v 0 c -57.929,0.126 -116.566,0.251 -170.598,0.367 v 0 c 0.071,1.328 0.396,2.587 0.396,3.931 v 0 c 0,40.512 -32.954,73.467 -73.458,73.467 v 0 c -40.503,0 -73.449,-32.955 -73.449,-73.467 v 0 c 0,-1.237 0.306,-2.392 0.366,-3.618 v 0 c -40.84,0.087 -70.814,0.153 -83.222,0.186 v 0 c -4.407,17.047 -14.596,68.697 10.42,109.391 v 0 c 11.817,19.223 30.04,33.687 54.418,43.249 v 0 h -36.077 c -13.504,-9.395 -24.461,-20.913 -32.804,-34.52 v 0 C 86.243,523.2 81.941,497.13 81.88,474.601 v 0 -0.978 c 0.082,-30.587 7.898,-54.408 8.466,-56.102 v 0 c 1.155,-3.433 4.373,-5.743 7.987,-5.759 v 0 c 1.582,-0.005 37.443,-0.1 92.55,-0.244 v 0 c 1.471,-5 3.451,-9.783 5.882,-14.287 v 0 h 20.077 c -2.13,2.72 -4.023,5.637 -5.645,8.718 v 0 c -2.787,5.289 -4.799,10.99 -5.79,17.096 v 0 c -0.48,2.962 -0.914,5.945 -0.914,9.039 v 0 c 0,31.188 25.372,56.551 56.552,56.551 v 0 c 31.18,0 56.552,-25.363 56.552,-56.551 v 0 c 0,-3.193 -0.431,-6.28 -0.942,-9.328 v 0 c -1.018,-6.073 -3.064,-11.738 -5.859,-16.993 v 0 c -1.601,-3.012 -3.46,-5.866 -5.548,-8.532 v 0 h 20.07 c 2.373,4.394 4.316,9.052 5.776,13.92 v 0 c 56.293,-0.145 117.66,-0.302 178.104,-0.45 v 0 c 2.33,-4.968 5.422,-9.511 9.127,-13.47 v 0 h 37.294 c -11.139,0 -20.965,5.311 -27.407,13.423 v 0 c -3.847,4.844 -6.404,10.668 -7.261,17.088 v 0 c -0.204,1.529 -0.467,3.042 -0.467,4.626 v 0 44.027 4.74 8.124 3.387 53.503 c 0,18.22 13.993,33.071 31.769,34.794 v 0 c 1.125,0.11 2.214,0.34 3.366,0.34 v 0 h 16.929 0.849 c 19.374,0 35.137,-15.761 35.137,-35.134 v 0 -4.727 -17.024 -30.72 -4.419 -8.124 -4.355 -44.412 c 0,-1.65 -0.266,-3.228 -0.487,-4.818 v 0 c -0.098,-0.703 -0.076,-1.441 -0.216,-2.131 v 0 c -1.129,-5.609 -3.709,-10.64 -7.17,-14.941 v 0 c -0.061,-0.076 -0.126,-0.15 -0.187,-0.227 v 0 c -6.45,-7.878 -16.125,-13.02 -27.077,-13.02 v 0 h 37.384 c 1.738,1.851 3.342,3.831 4.795,5.922 v 0 c 4.804,-2.088 9.705,-4.063 14.701,-5.922 v 0 h 67.431 c -18.991,2.92 -37.138,7.336 -54.182,13.147 v 0 c -7.175,2.447 -14.138,5.148 -20.901,8.076 v 0 c 0.83,2.93 1.367,5.945 1.665,9.06 v 0 c 0.155,1.622 0.491,3.193 0.491,4.854 v 0 44.412 h 96.392 21.865 78.745 21.865 50.554 16.9 59.208 c -18.834,-20.707 -42.924,-38.112 -70.602,-51.633 v 0 c -11.864,-5.795 -24.401,-10.851 -37.471,-15.152 v 0 c -4.401,-1.448 -8.87,-2.79 -13.388,-4.061 v 0 c -7.65,-2.153 -15.436,-4.074 -23.387,-5.702 v 0 c -5.508,-1.129 -11.08,-2.13 -16.712,-3.001 v 0 h 67.924 c 49.273,17.83 90.84,46.307 118.346,82.915 v 0 c 1.124,1.505 1.695,3.296 1.691,5.099 v 0 0.015 c -0.005,1.277 -0.299,2.559 -0.89,3.748 v 0 c -1.428,2.855 -4.357,4.67 -7.558,4.67 v 0 h -77.628 -16.903 -65.571 -91.502 -66.202 c 11.971,7.951 21.522,19.232 27.365,32.512 v 0 c 2.698,6.132 4.551,12.697 5.526,19.548 v 0 35.545 z" /></clipPath><clipPath
       id="clipPath122"
       clipPathUnits="userSpaceOnUse"><path
         id="path120"
         d="m 881.155,678.347 4.746,-7.58 80.979,-129.345 H 909.316 892.406 743.274 V 678.347 H 726.25 V 535.652 c 0,-6.215 5.039,-11.254 11.254,-11.254 v 0 h 155.374 16.909 67.509 c 8.844,0 14.231,9.73 9.54,17.227 v 0 l -85.598,136.722 z m -193.214,0 v -121.98 c 0,-4.648 -0.596,-9.15 -1.617,-13.491 v 0 -1.454 h -0.376 c -1.605,-6.116 -4.14,-11.849 -7.495,-17.024 v 0 c -10.52,-16.232 -28.757,-27.017 -49.498,-27.017 v 0 h -4.174 v 27.017 17.024 4.727 c 0,25.329 -18.463,46.307 -42.615,50.496 v 0 c -2.863,0.497 -5.766,0.887 -8.769,0.887 v 0 h -10.758 -7.02 c -28.331,0 -51.381,-23.051 -51.381,-51.383 v 0 -48.768 h -4.175 c -32.526,0 -58.988,26.461 -58.988,58.986 v 0 121.98 h -63.8 c -28.961,-12.279 -51.488,-24.478 -67.124,-32.952 v 0 C 256.306,616.236 209.729,608.86 209.309,608.81 v 0 c -51.471,-7.574 -88.014,-28.449 -108.616,-62.047 v 0 C 86.243,523.2 81.941,497.13 81.88,474.601 v 0 -0.978 c 0.052,-19.229 3.16,-35.78 5.602,-45.846 v 0 h 117.26 c -0.152,1.417 -0.249,2.85 -0.249,4.307 v 0 c 0,31.188 25.372,56.551 56.552,56.551 v 0 c 31.18,0 56.552,-25.363 56.552,-56.551 v 0 c 0,-1.456 -0.089,-2.889 -0.235,-4.307 v 0 h 187.339 c -57.929,0.126 -116.566,0.251 -170.598,0.367 v 0 c 0.071,1.328 0.396,2.587 0.396,3.931 v 0 c 0,40.512 -32.954,73.467 -73.458,73.467 v 0 c -40.503,0 -73.449,-32.955 -73.449,-73.467 v 0 c 0,-1.237 0.306,-2.392 0.366,-3.618 v 0 c -40.84,0.087 -70.814,0.153 -83.222,0.186 v 0 c -4.407,17.047 -14.596,68.697 10.42,109.391 v 0 c 17.864,29.06 50.373,47.245 96.644,54.06 v 0 c 2.013,0.298 49.803,7.806 107.707,39.159 v 0 c 21.434,11.614 57.021,30.867 105.322,47.094 v 0 -121.98 c 0,-41.482 33.75,-75.232 75.234,-75.232 v 0 h 4.175 v -48.767 c 0,-1.571 0.324,-3.054 0.463,-4.591 v 0 h 16.245 c -0.203,1.517 -0.462,3.019 -0.462,4.591 v 0 44.027 4.74 8.124 3.387 53.503 c 0,18.22 13.993,33.071 31.769,34.794 v 0 c 1.125,0.11 2.214,0.34 3.366,0.34 v 0 h 16.929 0.849 c 19.374,0 35.137,-15.761 35.137,-35.134 v 0 -4.727 -17.024 -30.72 -4.419 -8.124 -4.355 -44.412 c 0,-1.571 -0.242,-3.078 -0.455,-4.591 v 0 h 16.238 c 0.164,1.529 0.464,3.02 0.464,4.591 v 0 44.412 h 96.392 21.865 78.745 21.865 50.554 16.9 59.208 c -17.636,-19.389 -39.877,-35.882 -65.36,-49.003 v 0 h 33.344 c 22.421,14.748 41.679,32.343 56.726,52.369 v 0 c 1.124,1.505 1.695,3.296 1.691,5.099 v 0 0.015 c -0.005,1.277 -0.299,2.559 -0.89,3.748 v 0 c -1.428,2.855 -4.357,4.67 -7.558,4.67 v 0 h -77.628 -16.903 -65.571 -91.502 -66.202 c 11.971,7.951 21.522,19.232 27.365,32.512 v 0 c 2.698,6.132 4.551,12.697 5.526,19.548 v 0 132.609 z" /></clipPath><clipPath
       id="clipPath138"
       clipPathUnits="userSpaceOnUse"><path
         id="path136"
         d="m 608.534,488.636 v -7.501 -4.355 -44.412 c 0,-1.65 -0.266,-3.228 -0.487,-4.818 v 0 c -0.098,-0.703 -0.076,-1.441 -0.216,-2.131 v 0 c -1.129,-5.609 -3.709,-10.64 -7.17,-14.941 v 0 c -0.061,-0.076 -0.126,-0.15 -0.187,-0.227 v 0 c -6.45,-7.878 -16.125,-13.02 -27.077,-13.02 v 0 h -17.778 c -11.139,0 -20.965,5.311 -27.407,13.423 v 0 c -3.847,4.844 -6.404,10.668 -7.261,17.088 v 0 c -0.204,1.529 -0.467,3.042 -0.467,4.626 v 0 44.027 4.74 7.501 H 467.33 c 9.902,-4.805 21.008,-7.501 32.733,-7.501 v 0 h 4.175 v -48.767 c 0,-1.571 0.324,-3.054 0.463,-4.591 v 0 c -57.929,0.126 -116.566,0.251 -170.598,0.367 v 0 c 0.071,1.328 0.396,2.587 0.396,3.931 v 0 c 0,22.726 -10.371,43.075 -26.627,56.561 v 0 H 214.214 C 197.96,475.15 187.592,454.801 187.592,432.075 v 0 c 0,-1.237 0.306,-2.392 0.366,-3.618 v 0 c -40.84,0.087 -70.814,0.153 -83.222,0.186 v 0 c -2.706,10.467 -7.592,33.981 -5.169,59.993 v 0 H 82.485 c -0.407,-4.792 -0.593,-9.483 -0.605,-14.035 v 0 -0.978 c 0.082,-30.587 7.898,-54.408 8.466,-56.102 v 0 c 1.155,-3.433 4.373,-5.743 7.987,-5.759 v 0 c 1.582,-0.005 37.443,-0.1 92.55,-0.244 v 0 c 4.189,-14.24 12.514,-26.726 23.599,-35.987 v 0 h 46.563 c -21.705,0 -40.371,12.427 -49.848,30.418 v 0 c -2.787,5.289 -4.799,10.99 -5.79,17.096 v 0 c -0.48,2.962 -0.914,5.945 -0.914,9.039 v 0 c 0,31.188 25.372,56.551 56.552,56.551 v 0 c 31.18,0 56.552,-25.363 56.552,-56.551 v 0 c 0,-3.193 -0.431,-6.28 -0.942,-9.328 v 0 c -1.018,-6.073 -3.064,-11.738 -5.859,-16.993 v 0 c -9.508,-17.888 -28.12,-30.232 -49.751,-30.232 v 0 H 307.6 c 10.99,9.181 19.268,21.533 23.494,35.62 v 0 c 56.293,-0.145 117.66,-0.302 178.104,-0.45 v 0 c 8.205,-17.494 25.857,-29.716 46.421,-29.716 v 0 h 17.778 c 17.473,0 32.891,8.803 42.179,22.168 v 0 c 36.661,-15.937 79.087,-25.283 124.626,-26.781 v 0 c 1.53,-0.05 3.031,-0.172 4.568,-0.204 v 0 c 2.772,-0.05 5.511,-0.082 8.267,-0.082 v 0 c 28.132,0 55.509,3.148 81.497,8.932 v 0 c 67.565,15.038 125.437,48.481 160.486,95.128 v 0 c 1.124,1.505 1.695,3.296 1.691,5.099 v 0 0.015 c -0.004,1.145 -0.241,2.294 -0.716,3.376 v 0 z m 136.599,-95.571 c -7.605,0.162 -15.084,0.631 -22.497,1.239 v 0 c -28.121,2.31 -54.742,7.766 -79.11,16.074 v 0 c -7.175,2.447 -14.138,5.148 -20.901,8.076 v 0 c 0.83,2.93 1.367,5.945 1.665,9.06 v 0 c 0.155,1.622 0.491,3.193 0.491,4.854 v 0 44.412 h 96.392 21.865 78.745 21.865 50.554 16.9 59.208 c -18.834,-20.707 -42.924,-38.112 -70.602,-51.633 v 0 c -11.864,-5.795 -24.401,-10.851 -37.471,-15.152 v 0 c -4.401,-1.448 -8.87,-2.79 -13.388,-4.061 v 0 c -7.65,-2.153 -15.436,-4.074 -23.387,-5.702 v 0 c -25.234,-5.17 -51.845,-7.676 -79.126,-7.165 v 0 c -0.198,0.003 -0.394,10e-4 -0.591,-0.002 v 0 c -0.121,-10e-4 -0.243,-0.003 -0.364,-0.003 v 0 c -0.083,0 -0.166,10e-4 -0.248,0.003" /></clipPath><clipPath
       id="clipPath154"
       clipPathUnits="userSpaceOnUse"><path
         id="path152"
         d="m 726.59,921.533 c -0.221,-0.896 -0.34,-1.853 -0.34,-2.868 v 0 -43.85 h -76.612 c -5.404,19.016 -17.071,35.424 -32.649,46.718 v 0 H 516.769 C 501.191,910.239 489.524,893.831 484.12,874.815 v 0 h -85.537 c -4.487,0 -8.124,-3.637 -8.124,-8.123 v 0 c 0,-4.487 3.637,-8.125 8.124,-8.125 v 0 h 82.626 c -0.202,-2.408 -0.726,-4.723 -0.726,-7.182 v 0 c 0,-5.801 0.617,-11.455 1.713,-16.937 v 0 c -27.903,-3.99 -48.477,-24.031 -55.095,-53.213 v 0 h 16.866 c 6.242,21.193 22.12,35.303 43.045,37.424 v 0 c 6.197,-15.069 16.517,-28.02 29.554,-37.424 v 0 h 50.313 c -38.681,0 -70.149,31.469 -70.149,70.15 v 0 c 0,38.679 31.468,70.148 70.149,70.148 v 0 c 38.68,0 70.15,-31.469 70.15,-70.148 v 0 c 0,-38.681 -31.47,-70.15 -70.15,-70.15 v 0 h 50.156 c 11.923,8.626 21.57,20.231 27.889,33.696 v 0 c 12.054,-0.589 21.808,-4.153 28.758,-10.971 v 0 c 3.878,-3.802 6.803,-8.862 9.122,-14.612 v 0 c 1.027,-2.546 1.916,-5.249 2.653,-8.113 v 0 h 16.737 c -0.685,3.543 -1.552,6.929 -2.618,10.136 v 0 c -3.217,9.687 -8.067,17.863 -14.517,24.187 v 0 c -8.904,8.734 -20.557,13.722 -34.534,15.244 v 0 c 1.635,6.629 2.751,13.453 2.751,20.583 v 0 c 0,2.459 -0.524,4.774 -0.726,7.182 v 0 h 73.7 v -77.332 h 17.024 v 85.457 31.889 L 816.74,781.235 h 20.082 l -87.835,140.298 z" /></clipPath><clipPath
       id="clipPath170"
       clipPathUnits="userSpaceOnUse"><path
         id="path168"
         d="m 726.25,898.581 v -23.766 h -76.612 c -2.421,8.52 -6.101,16.518 -10.825,23.766 v 0 h -20.08 c 11.36,-12.47 18.296,-29.039 18.296,-47.196 v 0 c 0,-38.681 -31.47,-70.15 -70.15,-70.15 v 0 c -38.681,0 -70.149,31.469 -70.149,70.15 v 0 c 0,18.157 6.935,34.726 18.295,47.196 v 0 h -20.08 c -4.724,-7.248 -8.404,-15.246 -10.825,-23.766 v 0 h -85.537 c -4.487,0 -8.124,-3.637 -8.124,-8.123 v 0 c 0,-4.487 3.637,-8.125 8.124,-8.125 v 0 h 82.626 c -0.202,-2.408 -0.726,-4.723 -0.726,-7.182 v 0 c 0,-5.801 0.617,-11.455 1.713,-16.937 v 0 c -34.182,-4.888 -57.367,-33.869 -57.367,-74.229 v 0 -64.063 C 372.24,679.023 333.508,658.054 310.151,645.395 v 0 C 256.306,616.236 209.729,608.86 209.309,608.81 v 0 c -51.471,-7.574 -88.014,-28.449 -108.616,-62.047 v 0 c -1.085,-1.768 -2.11,-3.547 -3.082,-5.341 v 0 h 19.727 c 18.268,27.089 50.015,44.126 94.462,50.672 v 0 c 2.013,0.298 49.803,7.806 107.707,39.159 v 0 c 21.434,11.614 57.021,30.867 105.322,47.094 v 0 -121.98 c 0,-5.116 0.513,-10.112 1.491,-14.945 v 0 h 16.673 c -1.252,4.775 -1.918,9.784 -1.918,14.945 v 0 127.174 17.625 59.053 c 0,32.587 18.689,55.678 45.937,58.44 v 0 c 12.931,-31.443 43.817,-53.671 79.867,-53.671 v 0 c 34.571,0 64.246,20.539 78.045,49.943 v 0 c 12.054,-0.589 21.808,-4.153 28.758,-10.971 v 0 c 3.878,-3.802 6.803,-8.862 9.122,-14.612 v 0 c 3.261,-8.085 5.137,-17.754 5.137,-29.129 v 0 -42.137 -17.06 -144.655 c 0,-4.648 -0.596,-9.15 -1.617,-13.491 v 0 -1.454 h 16.286 c 0.285,1.425 0.531,2.864 0.738,4.316 v 0 152.827 17.125 58.051 c -0.742,6.312 -1.976,12.225 -3.772,17.63 v 0 c -3.217,9.687 -8.067,17.863 -14.517,24.187 v 0 c -8.904,8.734 -20.557,13.722 -34.534,15.244 v 0 c 1.635,6.629 2.751,13.453 2.751,20.583 v 0 c 0,2.459 -0.524,4.774 -0.726,7.182 v 0 h 73.7 V 711.499 694.293 541.422 h 17.024 v 148.899 17.563 158.808 31.889 l 133.551,-213.318 9.076,-14.496 80.979,-129.345 h 20.08 c -0.041,0.068 -0.082,0.135 -0.124,0.203 v 0 l -89.675,143.234 -4.518,7.214 -129.287,206.508 z M 562.639,597.532 h -7.02 c -28.331,0 -51.381,-23.051 -51.381,-51.383 v 0 -4.727 h 16.246 v 4.727 c 0,18.22 13.993,33.071 31.769,34.794 v 0 c 1.125,0.11 2.214,0.34 3.366,0.34 v 0 h 16.929 0.849 c 19.374,0 35.137,-15.761 35.137,-35.134 v 0 -4.727 h 16.247 v 4.727 c 0,25.329 -18.463,46.307 -42.615,50.496 v 0 c -2.863,0.497 -5.766,0.887 -8.769,0.887 v 0 z" /></clipPath><clipPath
       id="clipPath186"
       clipPathUnits="userSpaceOnUse"><path
         id="path184"
         d="m 484.12,874.815 h -85.537 c -4.487,0 -8.124,-3.637 -8.124,-8.123 v 0 c 0,-4.487 3.637,-8.125 8.124,-8.125 v 0 h 82.626 c -0.202,-2.408 -0.726,-4.723 -0.726,-7.182 v 0 c 0,-5.801 0.617,-11.455 1.713,-16.937 v 0 c -34.182,-4.888 -57.367,-33.869 -57.367,-74.229 v 0 -64.063 C 372.24,679.023 333.508,658.054 310.151,645.395 v 0 C 256.306,616.236 209.729,608.86 209.309,608.81 v 0 c -51.471,-7.574 -88.014,-28.449 -108.616,-62.047 v 0 C 86.243,523.2 81.941,497.13 81.88,474.601 v 0 -0.978 c 0.082,-30.587 7.898,-54.408 8.466,-56.102 v 0 c 1.155,-3.433 4.373,-5.743 7.987,-5.759 v 0 c 1.582,-0.005 37.443,-0.1 92.55,-0.244 v 0 c 8.958,-30.454 36.84,-52.892 70.158,-52.892 v 0 c 33.185,0 60.975,22.26 70.053,52.525 v 0 c 56.293,-0.145 117.66,-0.302 178.104,-0.45 v 0 c 8.205,-17.494 25.857,-29.716 46.421,-29.716 v 0 h 17.778 c 17.473,0 32.891,8.803 42.179,22.168 v 0 c 36.661,-15.937 79.087,-25.283 124.626,-26.781 v 0 c 1.53,-0.05 3.031,-0.172 4.568,-0.204 v 0 c 2.772,-0.05 5.511,-0.082 8.267,-0.082 v 0 c 28.132,0 55.509,3.148 81.497,8.932 v 0 c 67.565,15.038 125.437,48.481 160.486,95.128 v 0 c 1.124,1.505 1.695,3.296 1.691,5.099 v 0 0.015 c -0.005,1.277 -0.299,2.559 -0.89,3.748 v 0 c -1.428,2.855 -4.357,4.67 -7.558,4.67 v 0 h -77.628 -16.903 -65.571 -91.502 -66.202 c 11.971,7.951 21.522,19.232 27.365,32.512 v 0 c 2.698,6.132 4.551,12.697 5.526,19.548 v 0 152.827 17.125 58.051 c -0.742,6.312 -1.976,12.225 -3.772,17.63 v 0 c -3.217,9.687 -8.067,17.863 -14.517,24.187 v 0 c -8.904,8.734 -20.557,13.722 -34.534,15.244 v 0 c 1.635,6.629 2.751,13.453 2.751,20.583 v 0 c 0,2.459 -0.524,4.774 -0.726,7.182 v 0 h 73.7 V 711.499 694.293 535.652 c 0,-6.215 5.039,-11.254 11.254,-11.254 v 0 h 155.374 16.909 67.509 c 8.844,0 14.231,9.73 9.54,17.227 v 0 l -89.675,143.234 -4.518,7.214 -145.6,232.565 c -5.997,9.579 -20.793,5.33 -20.793,-5.973 v 0 -43.85 h -76.612 c -10.29,36.211 -43.294,62.964 -82.759,62.964 v 0 c -39.466,0 -72.468,-26.753 -82.759,-62.964 m 12.61,-23.43 c 0,38.679 31.468,70.148 70.149,70.148 v 0 c 38.68,0 70.15,-31.469 70.15,-70.148 v 0 c 0,-38.681 -31.47,-70.15 -70.15,-70.15 v 0 c -38.681,0 -70.149,31.469 -70.149,70.15 M 743.274,690.321 v 17.563 158.808 31.889 L 876.825,685.263 885.901,670.767 966.88,541.422 H 909.316 892.406 743.274 Z M 441.075,556.367 v 127.174 17.625 59.053 c 0,32.587 18.689,55.678 45.937,58.44 v 0 c 12.931,-31.443 43.817,-53.671 79.867,-53.671 v 0 c 34.571,0 64.246,20.539 78.045,49.943 v 0 c 12.054,-0.589 21.808,-4.153 28.758,-10.971 v 0 c 3.878,-3.802 6.803,-8.862 9.122,-14.612 v 0 c 3.261,-8.085 5.137,-17.754 5.137,-29.129 v 0 -42.137 -17.06 -144.655 c 0,-4.648 -0.596,-9.15 -1.617,-13.491 v 0 -1.454 h -0.376 c -1.605,-6.116 -4.14,-11.849 -7.495,-17.024 v 0 c -10.52,-16.232 -28.757,-27.017 -49.498,-27.017 v 0 h -4.174 v 27.017 17.024 4.727 c 0,25.329 -18.463,46.307 -42.615,50.496 v 0 c -2.863,0.497 -5.766,0.887 -8.769,0.887 v 0 h -10.758 -7.02 c -28.331,0 -51.381,-23.051 -51.381,-51.383 v 0 -48.768 h -4.175 c -32.526,0 -58.988,26.461 -58.988,58.986 M 104.736,428.643 c -4.407,17.047 -14.596,68.697 10.42,109.391 v 0 c 17.864,29.06 50.373,47.245 96.644,54.06 v 0 c 2.013,0.298 49.803,7.806 107.707,39.159 v 0 c 21.434,11.614 57.021,30.867 105.322,47.094 v 0 -121.98 c 0,-41.482 33.75,-75.232 75.234,-75.232 v 0 h 4.175 v -48.767 c 0,-1.571 0.324,-3.054 0.463,-4.591 v 0 c -57.929,0.126 -116.566,0.251 -170.598,0.367 v 0 c 0.071,1.328 0.396,2.587 0.396,3.931 v 0 c 0,40.512 -32.954,73.467 -73.458,73.467 v 0 c -40.503,0 -73.449,-32.955 -73.449,-73.467 v 0 c 0,-1.237 0.306,-2.392 0.366,-3.618 v 0 c -40.84,0.087 -70.814,0.153 -83.222,0.186 m 423.476,-17.989 c -3.847,4.844 -6.404,10.668 -7.261,17.088 v 0 c -0.204,1.529 -0.467,3.042 -0.467,4.626 v 0 44.027 4.74 8.124 3.387 53.503 c 0,18.22 13.993,33.071 31.769,34.794 v 0 c 1.125,0.11 2.214,0.34 3.366,0.34 v 0 h 16.929 0.849 c 19.374,0 35.137,-15.761 35.137,-35.134 v 0 -4.727 -17.024 -30.72 -4.419 -8.124 -4.355 -44.412 c 0,-1.65 -0.266,-3.228 -0.487,-4.818 v 0 c -0.098,-0.703 -0.076,-1.441 -0.216,-2.131 v 0 c -1.129,-5.609 -3.709,-10.64 -7.17,-14.941 v 0 c -0.061,-0.076 -0.126,-0.15 -0.187,-0.227 v 0 c -6.45,-7.878 -16.125,-13.02 -27.077,-13.02 v 0 h -17.778 c -11.139,0 -20.965,5.311 -27.407,13.423 m -317.015,-4.705 c -2.787,5.289 -4.799,10.99 -5.79,17.096 v 0 c -0.48,2.962 -0.914,5.945 -0.914,9.039 v 0 c 0,31.188 25.372,56.551 56.552,56.551 v 0 c 31.18,0 56.552,-25.363 56.552,-56.551 v 0 c 0,-3.193 -0.431,-6.28 -0.942,-9.328 v 0 c -1.018,-6.073 -3.064,-11.738 -5.859,-16.993 v 0 c -9.508,-17.888 -28.12,-30.232 -49.751,-30.232 v 0 c -21.705,0 -40.371,12.427 -49.848,30.418 m 533.936,-12.884 c -7.605,0.162 -15.084,0.631 -22.497,1.239 v 0 c -28.121,2.31 -54.742,7.766 -79.11,16.074 v 0 c -7.175,2.447 -14.138,5.148 -20.901,8.076 v 0 c 0.83,2.93 1.367,5.945 1.665,9.06 v 0 c 0.155,1.622 0.491,3.193 0.491,4.854 v 0 44.412 h 96.392 21.865 78.745 21.865 50.554 16.9 59.208 c -18.834,-20.707 -42.924,-38.112 -70.602,-51.633 v 0 c -11.864,-5.795 -24.401,-10.851 -37.471,-15.152 v 0 c -4.401,-1.448 -8.87,-2.79 -13.388,-4.061 v 0 c -7.65,-2.153 -15.436,-4.074 -23.387,-5.702 v 0 c -25.234,-5.17 -51.845,-7.676 -79.126,-7.165 v 0 c -0.198,0.003 -0.394,10e-4 -0.591,-0.002 v 0 c -0.121,-10e-4 -0.243,-0.003 -0.364,-0.003 v 0 c -0.083,0 -0.166,10e-4 -0.248,0.003" /></clipPath></defs><g
     transform="matrix(1.3333333,0,0,-1.3333333,0,1440)"
     id="g10"><g
       id="g12"><g
         clip-path="url(#clipPath18)"
         id="g14"><g
           transform="translate(315.0276,608.1816)"
           id="g20"><path
             id="path22"
             style="fill:#00ada7;fill-opacity:1;fill-rule:nonzero;stroke:none"
             d="M 0,0 C 0.022,0.027 0.044,0.053 0.065,0.079 -0.01,0.079 -0.086,0.08 -0.162,0.08 -0.108,0.053 -0.054,0.027 0,0" /></g><g
           transform="translate(105.8653,222.7373)"
           id="g24"><path
             id="path26"
             style="fill:#000000;fill-opacity:1;fill-rule:nonzero;stroke:none"
             d="m 0,0 h 16.951 c 6.215,0 11.3,5.509 11.3,12.713 0,7.204 -5.085,12.713 -11.3,12.713 H 0 Z M 10.736,-19.776 H 0 v -32.49 h -22.601 v 98.88 h 39.552 c 18.787,0 33.901,-15.113 33.901,-33.901 0,-12.149 -7.345,-23.167 -18.222,-28.676 L 53.677,-52.266 H 29.382 Z" /></g><g
           transform="translate(221.8314,213.1313)"
           id="g28"><path
             id="path30"
             style="fill:#000000;fill-opacity:1;fill-rule:nonzero;stroke:none"
             d="M 0,0 C -2.26,8.193 -8.617,11.16 -14.973,11.16 -23.025,11.16 -28.392,7.204 -30.37,0 Z m -12.995,-25.708 c 5.791,0 10.735,2.259 13.561,5.368 l 16.95,-9.747 c -6.921,-9.607 -17.374,-14.55 -30.794,-14.55 -24.155,0 -39.129,16.245 -39.129,37.292 0,21.047 15.256,37.291 37.576,37.291 20.623,0 35.879,-15.961 35.879,-37.291 0,-2.966 -0.283,-5.791 -0.848,-8.475 h -50.146 c 2.684,-7.345 9.181,-9.888 16.951,-9.888" /></g><g
           transform="translate(329.745,213.8379)"
           id="g32"><path
             id="path34"
             style="fill:#000000;fill-opacity:1;fill-rule:nonzero;stroke:none"
             d="m 0,0 v -43.366 h -21.189 v 40.259 c 0,8.757 -5.509,12.854 -12.289,12.854 -7.769,0 -13.137,-4.52 -13.137,-14.549 v -38.564 h -21.189 v 70.628 h 21.189 v -6.638 c 3.814,5.227 10.877,8.616 20.2,8.616 C -12.148,29.24 0,19.07 0,0" /></g><g
           transform="translate(378.1903,220.76)"
           id="g36"><path
             id="path38"
             style="fill:#000000;fill-opacity:1;fill-rule:nonzero;stroke:none"
             d="m 0,0 v -25.003 c 0,-6.075 5.226,-6.639 14.549,-6.075 v -19.21 c -27.687,-2.825 -35.738,5.509 -35.738,25.285 V 0 h -11.3 v 20.34 h 11.3 V 33.76 L 0,40.117 V 20.34 H 14.549 V 0 Z" /></g><g
           transform="translate(454.4607,219.9124)"
           id="g40"><path
             id="path42"
             style="fill:#000000;fill-opacity:1;fill-rule:nonzero;stroke:none"
             d="m 0,0 c 0,28.251 21.33,50.993 51.417,50.993 18.223,0 34.185,-9.322 42.378,-23.731 L 87.156,23.449 C 80.658,35.596 66.956,43.789 51.417,43.789 25.426,43.789 7.486,24.296 7.486,0 c 0,-24.296 17.94,-43.791 43.931,-43.791 15.68,0 29.524,8.334 36.021,20.765 l 6.639,-3.813 C 86.026,-41.389 69.922,-50.995 51.417,-50.995 21.33,-50.995 0,-28.253 0,0" /></g><g
           transform="translate(631.5889,214.4035)"
           id="g44"><path
             id="path46"
             style="fill:#000000;fill-opacity:1;fill-rule:nonzero;stroke:none"
             d="M 0,0 V -43.932 H -7.204 V 0 c 0,12.995 -7.486,21.47 -20.765,21.47 -13.843,0 -24.72,-9.04 -24.72,-28.11 v -37.292 h -7.063 v 98.88 h 7.063 V 13.277 c 5.368,10.454 14.409,14.974 25.285,14.974 C -10.594,28.251 0,17.092 0,0" /></g><path
           id="path48"
           style="fill:#000000;fill-opacity:1;fill-rule:nonzero;stroke:none"
           d="m 658.563,241.1 h 7.063 v -70.629 h -7.063 z m -2.119,22.743 c 0,2.967 2.543,5.509 5.651,5.509 3.108,0 5.65,-2.542 5.65,-5.509 0,-3.107 -2.542,-5.65 -5.65,-5.65 -3.108,0 -5.651,2.543 -5.651,5.65" /><g
           transform="translate(756.5933,205.786)"
           id="g50"><path
             id="path52"
             style="fill:#000000;fill-opacity:1;fill-rule:nonzero;stroke:none"
             d="M 0,0 C 0,16.81 -12.996,30.087 -29.805,30.087 -46.616,30.087 -59.753,16.81 -59.753,0 c 0,-16.81 13.137,-30.087 29.948,-30.087 C -12.996,-30.087 0,-16.81 0,0 M 7.204,35.314 V -35.314 H 0 v 15.962 c -5.933,-10.594 -16.81,-17.517 -30.371,-17.517 -20.058,0 -36.586,15.963 -36.586,36.869 0,20.906 16.528,36.869 36.586,36.869 13.561,0 24.438,-6.923 30.371,-17.517 v 15.962 z" /></g><g
           transform="translate(859.5621,205.786)"
           id="g54"><path
             id="path56"
             style="fill:#000000;fill-opacity:1;fill-rule:nonzero;stroke:none"
             d="m 0,0 c 0,16.81 -13.137,30.087 -29.946,30.087 -16.81,0 -29.947,-13.277 -29.947,-30.087 0,-16.81 13.137,-30.087 29.947,-30.087 C -13.137,-30.087 0,-16.81 0,0 m 7.063,0 c 0,-20.906 -16.386,-36.869 -36.586,-36.869 -13.701,0 -24.578,7.064 -30.37,17.94 v -44.636 h -7.063 v 98.879 h 7.063 V 18.929 c 5.792,10.876 16.669,17.94 30.37,17.94 20.2,0 36.586,-15.963 36.586,-36.869" /></g><g
           transform="translate(957.7285,205.786)"
           id="g58"><path
             id="path60"
             style="fill:#000000;fill-opacity:1;fill-rule:nonzero;stroke:none"
             d="m 0,0 c 0,16.81 -13.137,30.087 -29.946,30.087 -16.81,0 -29.947,-13.277 -29.947,-30.087 0,-16.81 13.137,-30.087 29.947,-30.087 C -13.137,-30.087 0,-16.81 0,0 m 7.063,0 c 0,-20.906 -16.386,-36.869 -36.586,-36.869 -13.701,0 -24.579,7.064 -30.37,17.94 v -44.636 h -7.063 v 98.879 h 7.063 V 18.929 c 5.791,10.876 16.669,17.94 30.37,17.94 20.2,0 36.586,-15.963 36.586,-36.869" /></g><path
           id="path62"
           style="fill:#000000;fill-opacity:1;fill-rule:nonzero;stroke:none"
           d="m 988.939,241.1 h 7.063 v -70.629 h -7.063 z m -2.119,22.743 c 0,2.967 2.543,5.509 5.651,5.509 3.107,0 5.65,-2.542 5.65,-5.509 0,-3.107 -2.543,-5.65 -5.65,-5.65 -3.108,0 -5.651,2.543 -5.651,5.65" /><g
           transform="translate(364.9036,600.8657)"
           id="g64"><path
             id="path66"
             style="fill:#00ada7;fill-opacity:1;fill-rule:nonzero;stroke:none"
             d="M 0,0 V 0.508 C -0.04,0.337 -0.086,0.169 -0.131,0 Z" /></g></g></g><g
       id="g68"><g
         clip-path="url(#clipPath74)"
         id="g70"><g
           id="g76"><g
             transform="scale(1,-1)"
             id="g78"><g
               id="g80"><path
                 id="path82"
                 style="fill:#173c58;fill-opacity:1;fill-rule:nonzero;stroke:none"
                 d="m 81.879882,-393.00168 c 0,-27.92577 0,-55.85155 0,-83.77732 304.943378,0 609.887738,0 914.831118,0 0,27.92577 0,55.85155 0,83.77732 -304.94338,0 -609.88774,0 -914.831118,0 z" /></g></g></g></g></g><g
       id="g84"><g
         clip-path="url(#clipPath90)"
         id="g86"><g
           id="g92"><g
             transform="scale(1,-1)"
             id="g94"><g
               id="g96"><path
                 id="path98"
                 style="fill:#173c58;fill-opacity:1;fill-rule:nonzero;stroke:none"
                 d="m 81.880029,-497.38169 c 0,-107.09227 0,-214.18455 0,-321.27731 304.943331,0 609.887641,0 914.830971,0 0,107.09276 0,214.18504 0,321.27731 -304.94333,0 -609.88764,0 -914.830971,0 z" /></g></g></g></g></g><g
       id="g100"><g
         clip-path="url(#clipPath106)"
         id="g102"><g
           id="g108"><g
             transform="scale(1,-1)"
             id="g110"><g
               id="g112"><path
                 id="path114"
                 style="fill:#173c58;fill-opacity:1;fill-rule:nonzero;stroke:none"
                 d="m 81.879894,-397.23127 c 0,-61.35057 0,-122.70115 0,-184.05173 304.943376,0 609.887726,0 914.831106,0 0,61.35058 0,122.70116 0,184.05173 -304.94338,0 -609.88773,0 -914.831106,0 z" /></g></g></g></g></g><g
       id="g116"><g
         clip-path="url(#clipPath122)"
         id="g118"><g
           id="g124"><g
             transform="scale(1,-1)"
             id="g126"><g
               id="g128"><path
                 id="path130"
                 style="fill:#173c58;fill-opacity:1;fill-rule:nonzero;stroke:none"
                 d="m 81.879639,-427.77758 c 0,-83.52347 0,-167.04644 0,-250.56942 304.943461,0 609.887901,0 914.831361,0 0,83.52298 0,167.04595 0,250.56942 -304.94346,0 -609.8879,0 -914.831361,0 z" /></g></g></g></g></g><g
       id="g132"><g
         clip-path="url(#clipPath138)"
         id="g134"><g
           id="g140"><g
             transform="scale(1,-1)"
             id="g142"><g
               id="g144"><path
                 id="path146"
                 style="fill:#173c58;fill-opacity:1;fill-rule:nonzero;stroke:none"
                 d="m 81.879926,-375.53147 c 0,-37.70118 0,-75.40335 0,-113.10453 304.943364,0 609.887704,0 914.831074,0 0,37.70118 0,75.40335 0,113.10453 -304.94337,0 -609.88771,0 -914.831074,0 z" /></g></g></g></g></g><g
       id="g148"><g
         clip-path="url(#clipPath154)"
         id="g150"><g
           id="g156"><g
             transform="scale(1,-1)"
             id="g158"><g
               id="g160"><path
                 id="path162"
                 style="fill:#173c58;fill-opacity:1;fill-rule:nonzero;stroke:none"
                 d="m 81.880038,-781.23467 c 0,-46.76611 0,-93.53222 0,-140.29833 304.943332,0 609.887632,0 914.830962,0 0,46.76611 0,93.53222 0,140.29833 -304.94333,0 -609.88763,0 -914.830962,0 z" /></g></g></g></g></g><g
       id="g164"><g
         clip-path="url(#clipPath170)"
         id="g166"><g
           id="g172"><g
             transform="scale(1,-1)"
             id="g174"><g
               id="g176"><path
                 id="path178"
                 style="fill:#173c58;fill-opacity:1;fill-rule:nonzero;stroke:none"
                 d="m 81.879613,-541.42267 c 0,-119.05277 0,-238.10555 0,-357.15833 304.943467,0 609.887917,0 914.831387,0 0,119.05278 0,238.10556 0,357.15833 -304.94347,0 -609.88792,0 -914.831387,0 z" /></g></g></g></g></g><g
       id="g180"><g
         clip-path="url(#clipPath186)"
         id="g182"><g
           id="g188"><g
             transform="scale(1,-1)"
             id="g190"><g
               id="g192"><path
                 id="path194"
                 style="fill:#173c58;fill-opacity:1;fill-rule:nonzero;stroke:none"
                 d="m 81.880098,-358.6248 c 0,-193.05173 0,-386.10296 0,-579.1542 304.943312,0 609.887592,0 914.830902,0 0,193.05124 0,386.10247 0,579.1542 -304.94331,0 -609.88759,0 -914.830902,0 z" /></g></g></g></g></g></g></svg>