<?xml version="1.0" standalone="no"?>
<!DOCTYPE svg PUBLIC "-//W3C//DTD SVG 20010904//EN"
 "http://www.w3.org/TR/2001/REC-SVG-20010904/DTD/svg10.dtd">
<svg version="1.0" xmlns="http://www.w3.org/2000/svg"
 width="2001.000000pt" height="2001.000000pt" viewBox="0 0 2001.000000 2001.000000"
 preserveAspectRatio="xMidYMid meet">

<g transform="translate(0.000000,2001.000000) scale(0.100000,-0.100000)"
fill="#000000" stroke="none">
<path d="M10255 13709 c-299 -22 -588 -182 -773 -428 -66 -87 -141 -229 -168
-313 l-18 -58 -560 0 c-427 0 -567 -3 -586 -13 -14 -7 -33 -29 -43 -50 -24
-48 -9 -100 37 -128 30 -18 56 -19 571 -19 l540 0 0 -102 c0 -57 3 -126 8
-153 l7 -50 -87 -22 c-283 -72 -492 -271 -589 -559 -54 -162 -57 -194 -63
-713 l-6 -483 -200 -72 c-350 -127 -614 -242 -953 -417 -653 -337 -795 -401
-1112 -504 -172 -55 -388 -109 -520 -130 -270 -44 -496 -112 -705 -215 -158
-77 -244 -132 -361 -231 -251 -212 -429 -524 -498 -869 -56 -279 -48 -639 20
-946 36 -162 55 -214 87 -238 28 -21 39 -21 638 -26 l610 -5 38 -90 c20 -49
50 -110 65 -135 258 -409 763 -561 1194 -359 214 100 391 289 479 511 l26 68
1141 0 1141 0 26 -48 c90 -161 246 -276 431 -317 65 -14 114 -16 290 -13 187
4 221 8 278 27 122 42 265 144 323 230 l15 23 129 -50 c342 -134 713 -223
1118 -268 311 -35 803 -29 1130 12 845 108 1643 452 2152 928 l63 58 0 239 0
239 -1942 0 -1943 1 35 27 c176 136 310 332 360 526 20 78 20 106 20 1586 l0
1507 -25 99 c-13 55 -46 142 -71 194 -61 125 -180 247 -294 303 -74 37 -210
77 -258 77 -22 0 -24 3 -18 33 20 97 28 178 24 248 l-3 79 472 0 473 0 0
-2082 c0 -1963 1 -2085 18 -2118 9 -19 32 -45 51 -57 l34 -23 1533 0 1534 0 0
243 0 242 -639 1020 c-351 561 -1004 1605 -1450 2320 -447 715 -828 1315 -847
1333 -29 28 -41 32 -85 32 -63 0 -110 -26 -133 -74 -14 -29 -16 -79 -16 -330
l0 -296 -493 0 -493 0 -18 58 c-49 155 -171 341 -302 460 -233 211 -513 305
-839 281z m282 -218 c277 -57 507 -240 633 -502 62 -131 82 -221 83 -374 1
-261 -91 -476 -279 -654 -260 -247 -615 -317 -948 -189 -149 58 -321 195 -416
333 -114 166 -174 405 -150 598 34 277 182 515 413 664 103 67 199 103 362
137 56 11 218 4 302 -13z m2988 -1721 c1101 -1757 1950 -3113 1959 -3127 6
-10 -283 -13 -1428 -13 l-1436 0 0 2292 0 2292 81 -130 c45 -71 416 -662 824
-1314z m-4159 348 c59 -118 131 -213 234 -311 212 -201 458 -299 755 -300 315
0 584 116 800 345 64 68 177 227 190 268 8 25 64 27 150 5 222 -57 351 -218
400 -502 22 -126 23 -2822 1 -2936 -27 -140 -100 -282 -199 -385 -131 -137
-345 -232 -523 -232 l-72 0 -5 368 c-5 410 -7 426 -78 562 -89 172 -243 290
-436 334 -111 25 -434 23 -537 -4 -224 -57 -406 -237 -471 -465 -15 -50 -18
-121 -22 -429 l-5 -369 -97 6 c-270 16 -509 176 -631 422 -80 162 -74 42 -77
1602 -4 1533 -4 1512 56 1670 78 201 233 348 426 404 99 29 100 29 141 -53z
m-803 -3523 c51 -188 135 -333 268 -461 90 -85 143 -122 251 -174 114 -55 202
-78 345 -92 l122 -12 3 -335 c2 -185 1 -338 -2 -341 -3 -3 -495 -4 -1094 -2
l-1088 3 5 27 c11 56 -14 217 -50 324 -108 326 -384 563 -730 629 -94 17 -319
6 -411 -20 -394 -114 -679 -473 -685 -863 l-2 -88 -534 3 -534 2 -13 55 c-46
198 -67 462 -54 653 28 393 151 682 389 917 241 238 561 382 1026 460 341 57
738 186 1127 366 68 31 224 111 348 177 391 210 716 359 1042 480 95 36 187
69 203 74 l30 10 5 -846 6 -846 27 -100z m1976 540 c163 -39 294 -166 337
-329 11 -41 14 -203 14 -836 0 -857 0 -851 -57 -950 -68 -115 -196 -207 -322
-230 -69 -13 -303 -13 -372 0 -178 33 -331 181 -368 358 -7 36 -11 298 -11
832 0 734 1 782 19 839 26 83 60 137 123 198 65 61 138 100 222 118 86 19 335
19 415 0z m-3924 -1200 c242 -62 439 -254 516 -505 30 -96 32 -270 6 -370 -72
-268 -289 -479 -551 -536 -105 -22 -273 -15 -366 16 -197 66 -343 195 -435
385 -185 381 -11 822 387 982 131 53 303 64 443 28z m8905 -144 c-13 -26 -194
-193 -295 -274 -512 -408 -1197 -672 -1980 -762 -197 -22 -593 -30 -800 -16
-439 31 -849 115 -1190 244 -201 76 -187 69 -180 95 17 70 24 196 25 450 l0
282 2215 0 c2182 0 2216 0 2205 -19z"/>
</g>
</svg>
